<?xml version="1.0" encoding="us-ascii" standalone="no"?><svg xmlns="http://www.w3.org/2000/svg" xmlns:xlink="http://www.w3.org/1999/xlink" contentStyleType="text/css" height="489.6px" preserveAspectRatio="none" style="width:1230px;height:489px;background:#FFFFFF;" version="1.1" viewBox="0 0 1230 489" width="1230px" zoomAndPan="magnify"><defs/><g><!--class Transport--><g id="elem_Transport"><rect codeLine="3" fill="#F1F1F1" height="124.6359" id="Transport" rx="3" ry="3" style="stroke:#181818;stroke-width:0.6;" width="224.4" x="615" y="8.4"/><ellipse cx="684.9" cy="27.6" fill="#A9DCDF" rx="13.2" ry="13.2" style="stroke:#181818;stroke-width:1.2;"/><path d="M687.525,29.7188 L682.5563,29.7188 L682.05,30.9562 L682.5563,30.9562 Q683.2875,30.9562 683.6062,31.2375 Q683.925,31.5187 683.925,31.9875 Q683.925,32.4375 683.6062,32.7188 Q683.2875,33 682.5563,33 L679.8,33 Q679.0688,33 678.7688,32.7188 Q678.45,32.4375 678.45,31.9688 Q678.45,31.5187 678.7875,31.2375 Q679.1062,30.9375 679.8562,30.9562 L683.0625,22.9688 L681.7312,22.9688 Q681,22.9688 680.6813,22.6875 Q680.3625,22.4063 680.3625,21.9375 Q680.3625,21.4875 680.6813,21.2063 Q681,20.925 681.7312,20.925 L686.1375,20.925 L690.2063,30.9562 Q690.9187,30.9562 691.1438,31.125 Q691.6125,31.4437 691.6125,31.9875 Q691.6125,32.4375 691.2937,32.7188 Q690.9938,33 690.2625,33 L687.5063,33 Q686.775,33 686.4563,32.7188 Q686.1375,32.4375 686.1375,31.9688 Q686.1375,31.5187 686.4563,31.2375 Q686.775,30.9562 687.5063,30.9562 L688.0125,30.9562 L687.525,29.7188 Z M686.6625,27.675 L685.0313,23.625 L683.3813,27.675 L686.6625,27.675 Z " fill="#000000"/><text fill="#000000" font-family="sans-serif" font-size="16.8" font-style="italic" lengthAdjust="spacing" textLength="74.4" x="709.5" y="34.5563">Transport</text><line style="stroke:#181818;stroke-width:0.6;" x1="616.2" x2="838.2" y1="46.8" y2="46.8"/><ellipse cx="628.2" cy="64.5727" fill="none" rx="3.6" ry="3.6" style="stroke:#038048;stroke-width:1.2;"/><text fill="#000000" font-family="sans-serif" font-size="16.8" lengthAdjust="spacing" textLength="178.8" x="639" y="69.7289">passengerCapacity : int</text><ellipse cx="628.2" cy="86.918" fill="none" rx="3.6" ry="3.6" style="stroke:#038048;stroke-width:1.2;"/><text fill="#000000" font-family="sans-serif" font-size="16.8" lengthAdjust="spacing" textLength="193.2" x="639" y="92.0742">carryingCapacity : double</text><line style="stroke:#181818;stroke-width:0.6;" x1="616.2" x2="838.2" y1="101.0906" y2="101.0906"/><ellipse cx="628.2" cy="118.8633" fill="#84BE84" rx="3.6" ry="3.6" style="stroke:#038048;stroke-width:1.2;"/><text fill="#000000" font-family="sans-serif" font-size="16.8" font-style="italic" lengthAdjust="spacing" textLength="97.2" x="639" y="124.0195">Move() : void</text></g><!--class MotorTransport--><g id="elem_MotorTransport"><rect codeLine="11" fill="#F1F1F1" height="79.9453" id="MotorTransport" rx="3" ry="3" style="stroke:#181818;stroke-width:0.6;" width="157.2" x="555" y="216"/><ellipse cx="573" cy="235.2" fill="#A9DCDF" rx="13.2" ry="13.2" style="stroke:#181818;stroke-width:1.2;"/><path d="M575.625,237.3188 L570.6563,237.3188 L570.15,238.5562 L570.6563,238.5562 Q571.3875,238.5562 571.7063,238.8375 Q572.025,239.1187 572.025,239.5875 Q572.025,240.0375 571.7063,240.3188 Q571.3875,240.6 570.6563,240.6 L567.9,240.6 Q567.1687,240.6 566.8688,240.3188 Q566.55,240.0375 566.55,239.5688 Q566.55,239.1187 566.8875,238.8375 Q567.2063,238.5375 567.9563,238.5562 L571.1625,230.5688 L569.8313,230.5688 Q569.1,230.5688 568.7813,230.2875 Q568.4625,230.0063 568.4625,229.5375 Q568.4625,229.0875 568.7813,228.8063 Q569.1,228.525 569.8313,228.525 L574.2375,228.525 L578.3063,238.5562 Q579.0188,238.5562 579.2438,238.725 Q579.7125,239.0438 579.7125,239.5875 Q579.7125,240.0375 579.3938,240.3188 Q579.0938,240.6 578.3625,240.6 L575.6062,240.6 Q574.875,240.6 574.5563,240.3188 Q574.2375,240.0375 574.2375,239.5688 Q574.2375,239.1187 574.5563,238.8375 Q574.875,238.5562 575.6062,238.5562 L576.1125,238.5562 L575.625,237.3188 Z M574.7625,235.275 L573.1313,231.225 L571.4812,235.275 L574.7625,235.275 Z " fill="#000000"/><text fill="#000000" font-family="sans-serif" font-size="16.8" font-style="italic" lengthAdjust="spacing" textLength="118.8" x="589.8" y="242.1563">MotorTransport</text><line style="stroke:#181818;stroke-width:0.6;" x1="556.2" x2="711" y1="254.4" y2="254.4"/><line style="stroke:#181818;stroke-width:0.6;" x1="556.2" x2="711" y1="264" y2="264"/><ellipse cx="568.2" cy="281.7727" fill="#84BE84" rx="3.6" ry="3.6" style="stroke:#038048;stroke-width:1.2;"/><text fill="#000000" font-family="sans-serif" font-size="16.8" lengthAdjust="spacing" textLength="98.4" x="579" y="286.9289">Move() : void</text></g><!--class AirTransport--><g id="elem_AirTransport"><rect codeLine="16" fill="#F1F1F1" height="79.9453" id="AirTransport" rx="3" ry="3" style="stroke:#181818;stroke-width:0.6;" width="133.2" x="754.2" y="216"/><ellipse cx="772.2" cy="235.2" fill="#A9DCDF" rx="13.2" ry="13.2" style="stroke:#181818;stroke-width:1.2;"/><path d="M774.825,237.3188 L769.8562,237.3188 L769.35,238.5562 L769.8562,238.5562 Q770.5875,238.5562 770.9063,238.8375 Q771.225,239.1187 771.225,239.5875 Q771.225,240.0375 770.9063,240.3188 Q770.5875,240.6 769.8562,240.6 L767.1,240.6 Q766.3688,240.6 766.0688,240.3188 Q765.75,240.0375 765.75,239.5688 Q765.75,239.1187 766.0875,238.8375 Q766.4063,238.5375 767.1563,238.5562 L770.3625,230.5688 L769.0313,230.5688 Q768.3,230.5688 767.9812,230.2875 Q767.6625,230.0063 767.6625,229.5375 Q767.6625,229.0875 767.9812,228.8063 Q768.3,228.525 769.0313,228.525 L773.4375,228.525 L777.5063,238.5562 Q778.2188,238.5562 778.4438,238.725 Q778.9125,239.0438 778.9125,239.5875 Q778.9125,240.0375 778.5938,240.3188 Q778.2937,240.6 777.5625,240.6 L774.8063,240.6 Q774.075,240.6 773.7563,240.3188 Q773.4375,240.0375 773.4375,239.5688 Q773.4375,239.1187 773.7563,238.8375 Q774.075,238.5562 774.8063,238.5562 L775.3125,238.5562 L774.825,237.3188 Z M773.9625,235.275 L772.3313,231.225 L770.6813,235.275 L773.9625,235.275 Z " fill="#000000"/><text fill="#000000" font-family="sans-serif" font-size="16.8" font-style="italic" lengthAdjust="spacing" textLength="94.8" x="789" y="242.1563">AirTransport</text><line style="stroke:#181818;stroke-width:0.6;" x1="755.4" x2="886.2" y1="254.4" y2="254.4"/><line style="stroke:#181818;stroke-width:0.6;" x1="755.4" x2="886.2" y1="264" y2="264"/><ellipse cx="767.4" cy="281.7727" fill="#84BE84" rx="3.6" ry="3.6" style="stroke:#038048;stroke-width:1.2;"/><text fill="#000000" font-family="sans-serif" font-size="16.8" lengthAdjust="spacing" textLength="98.4" x="778.2" y="286.9289">Move() : void</text></g><!--class ICargoTransportation--><g id="elem_ICargoTransportation"><rect codeLine="20" fill="#F1F1F1" height="102.2906" id="ICargoTransportation" rx="3" ry="3" style="stroke:#181818;stroke-width:0.6;" width="229.2" x="960.6" y="205.2"/><ellipse cx="991.02" cy="224.4" fill="#B4A7E5" rx="13.2" ry="13.2" style="stroke:#181818;stroke-width:1.2;"/><path d="M992.1637,220.3688 L992.1637,228.3563 L994.2262,228.3563 Q994.9575,228.3563 995.2763,228.6375 Q995.595,228.9188 995.595,229.3875 Q995.595,229.8375 995.2763,230.1188 Q994.9575,230.4 994.2262,230.4 L988.0575,230.4 Q987.3263,230.4 987.0075,230.1188 Q986.6888,229.8375 986.6888,229.3688 Q986.6888,228.9188 987.0075,228.6375 Q987.3263,228.3563 988.0575,228.3563 L990.12,228.3563 L990.12,220.3688 L988.0575,220.3688 Q987.3263,220.3688 987.0075,220.0875 Q986.6888,219.8063 986.6888,219.3375 Q986.6888,218.8875 987.0075,218.6063 Q987.3263,218.325 988.0575,218.325 L994.2262,218.325 Q994.9575,218.325 995.2763,218.6063 Q995.595,218.8875 995.595,219.3375 Q995.595,219.8063 995.2763,220.0875 Q994.9575,220.3688 994.2262,220.3688 L992.1637,220.3688 Z " fill="#000000"/><text fill="#000000" font-family="sans-serif" font-size="16.8" font-style="italic" lengthAdjust="spacing" textLength="163.2" x="1010.58" y="231.3563">ICargoTransportation</text><line style="stroke:#181818;stroke-width:0.6;" x1="961.8" x2="1188.6" y1="243.6" y2="243.6"/><line style="stroke:#181818;stroke-width:0.6;" x1="961.8" x2="1188.6" y1="253.2" y2="253.2"/><ellipse cx="973.8" cy="270.9727" fill="#84BE84" rx="3.6" ry="3.6" style="stroke:#038048;stroke-width:1.2;"/><text fill="#000000" font-family="sans-serif" font-size="16.8" font-style="italic" lengthAdjust="spacing" textLength="182.4" x="984.6" y="276.1289">LoadingOfCargo() : void</text><ellipse cx="973.8" cy="293.318" fill="#84BE84" rx="3.6" ry="3.6" style="stroke:#038048;stroke-width:1.2;"/><text fill="#000000" font-family="sans-serif" font-size="16.8" font-style="italic" lengthAdjust="spacing" textLength="198" x="984.6" y="298.4742">UnloadingOfCargo() : void</text></g><!--class IPassengerTransportation--><g id="elem_IPassengerTransportation"><rect codeLine="25" fill="#F1F1F1" height="102.2906" id="IPassengerTransportation" rx="3" ry="3" style="stroke:#181818;stroke-width:0.6;" width="314.4" x="134.4" y="205.2"/><ellipse cx="187.5" cy="224.4" fill="#B4A7E5" rx="13.2" ry="13.2" style="stroke:#181818;stroke-width:1.2;"/><path d="M188.6437,220.3688 L188.6437,228.3563 L190.7062,228.3563 Q191.4375,228.3563 191.7563,228.6375 Q192.075,228.9188 192.075,229.3875 Q192.075,229.8375 191.7563,230.1188 Q191.4375,230.4 190.7062,230.4 L184.5375,230.4 Q183.8063,230.4 183.4875,230.1188 Q183.1688,229.8375 183.1688,229.3688 Q183.1688,228.9188 183.4875,228.6375 Q183.8063,228.3563 184.5375,228.3563 L186.6,228.3563 L186.6,220.3688 L184.5375,220.3688 Q183.8063,220.3688 183.4875,220.0875 Q183.1688,219.8063 183.1688,219.3375 Q183.1688,218.8875 183.4875,218.6063 Q183.8063,218.325 184.5375,218.325 L190.7062,218.325 Q191.4375,218.325 191.7563,218.6063 Q192.075,218.8875 192.075,219.3375 Q192.075,219.8063 191.7563,220.0875 Q191.4375,220.3688 190.7062,220.3688 L188.6437,220.3688 Z " fill="#000000"/><text fill="#000000" font-family="sans-serif" font-size="16.8" font-style="italic" lengthAdjust="spacing" textLength="198" x="212.1" y="231.3563">IPassengerTransportation</text><line style="stroke:#181818;stroke-width:0.6;" x1="135.6" x2="447.6" y1="243.6" y2="243.6"/><line style="stroke:#181818;stroke-width:0.6;" x1="135.6" x2="447.6" y1="253.2" y2="253.2"/><ellipse cx="147.6" cy="270.9727" fill="#84BE84" rx="3.6" ry="3.6" style="stroke:#038048;stroke-width:1.2;"/><text fill="#000000" font-family="sans-serif" font-size="16.8" font-style="italic" lengthAdjust="spacing" textLength="232.8" x="158.4" y="276.1289">BoardingOfPassengers() : void</text><ellipse cx="147.6" cy="293.318" fill="#84BE84" rx="3.6" ry="3.6" style="stroke:#038048;stroke-width:1.2;"/><text fill="#000000" font-family="sans-serif" font-size="16.8" font-style="italic" lengthAdjust="spacing" textLength="283.2" x="158.4" y="298.4742">DisembarkationOfPassengers() : void</text></g><!--class Bus--><g id="elem_Bus"><rect codeLine="32" fill="#F1F1F1" height="102.2906" id="Bus" rx="3" ry="3" style="stroke:#181818;stroke-width:0.6;" width="314.4" x="8.4" y="379.2"/><ellipse cx="146.1" cy="398.4" fill="#ADD1B2" rx="13.2" ry="13.2" style="stroke:#181818;stroke-width:1.2;"/><path d="M149.4188,393.45 Q149.6063,393.1875 149.8312,393.0563 Q150.0563,392.925 150.3188,392.925 Q150.7687,392.925 151.05,393.2438 Q151.3312,393.5438 151.3312,394.275 L151.3312,396.0188 Q151.3312,396.75 151.05,397.0687 Q150.7687,397.3875 150.3188,397.3875 Q149.9063,397.3875 149.6625,397.1438 Q149.4188,396.9188 149.2875,396.3 Q149.2313,395.8688 149.0063,395.6438 Q148.6125,395.1937 147.8813,394.9313 Q147.15,394.6688 146.4,394.6688 Q145.4813,394.6688 144.7125,395.0625 Q143.9625,395.4563 143.3625,396.3563 Q142.7813,397.2562 142.7813,398.4938 L142.7813,399.8063 Q142.7813,401.2875 143.85,402.2813 Q144.9188,403.2562 146.8312,403.2562 Q147.9562,403.2562 148.7438,402.9563 Q149.2125,402.7688 149.7188,402.2438 Q150.0375,401.925 150.2062,401.8313 Q150.3937,401.7375 150.6375,401.7375 Q151.0313,401.7375 151.3312,402.0563 Q151.65,402.3563 151.65,402.7688 Q151.65,403.1813 151.2375,403.6688 Q150.6375,404.3625 149.6813,404.7562 Q148.3875,405.3 146.8312,405.3 Q145.0125,405.3 143.5688,404.55 Q142.3875,403.95 141.5625,402.675 Q140.7375,401.3812 140.7375,399.8438 L140.7375,398.4563 Q140.7375,396.8625 141.4688,395.4938 Q142.2188,394.1063 143.5313,393.375 Q144.8438,392.625 146.325,392.625 Q147.2062,392.625 147.975,392.8313 Q148.7625,393.0188 149.4188,393.45 Z " fill="#000000"/><text fill="#000000" font-family="sans-serif" font-size="16.8" lengthAdjust="spacing" textLength="28.8" x="170.7" y="405.3563">Bus</text><line style="stroke:#181818;stroke-width:0.6;" x1="9.6" x2="321.6" y1="417.6" y2="417.6"/><line style="stroke:#181818;stroke-width:0.6;" x1="9.6" x2="321.6" y1="427.2" y2="427.2"/><ellipse cx="21.6" cy="444.9727" fill="#84BE84" rx="3.6" ry="3.6" style="stroke:#038048;stroke-width:1.2;"/><text fill="#000000" font-family="sans-serif" font-size="16.8" lengthAdjust="spacing" textLength="234" x="32.4" y="450.1289">BoardingOfPassengers() : void</text><ellipse cx="21.6" cy="467.318" fill="#84BE84" rx="3.6" ry="3.6" style="stroke:#038048;stroke-width:1.2;"/><text fill="#000000" font-family="sans-serif" font-size="16.8" lengthAdjust="spacing" textLength="283.2" x="32.4" y="472.4742">DisembarkationOfPassengers() : void</text></g><!--class Truck--><g id="elem_Truck"><rect codeLine="39" fill="#F1F1F1" height="102.2906" id="Truck" rx="3" ry="3" style="stroke:#181818;stroke-width:0.6;" width="229.2" x="721.8" y="379.2"/><ellipse cx="809.7" cy="398.4" fill="#ADD1B2" rx="13.2" ry="13.2" style="stroke:#181818;stroke-width:1.2;"/><path d="M813.0188,393.45 Q813.2063,393.1875 813.4313,393.0563 Q813.6563,392.925 813.9187,392.925 Q814.3688,392.925 814.65,393.2438 Q814.9313,393.5438 814.9313,394.275 L814.9313,396.0188 Q814.9313,396.75 814.65,397.0687 Q814.3688,397.3875 813.9187,397.3875 Q813.5063,397.3875 813.2625,397.1438 Q813.0188,396.9188 812.8875,396.3 Q812.8313,395.8688 812.6062,395.6438 Q812.2125,395.1937 811.4812,394.9313 Q810.75,394.6688 810,394.6688 Q809.0813,394.6688 808.3125,395.0625 Q807.5625,395.4563 806.9625,396.3563 Q806.3813,397.2562 806.3813,398.4938 L806.3813,399.8063 Q806.3813,401.2875 807.45,402.2813 Q808.5188,403.2562 810.4313,403.2562 Q811.5563,403.2562 812.3438,402.9563 Q812.8125,402.7688 813.3188,402.2438 Q813.6375,401.925 813.8063,401.8313 Q813.9938,401.7375 814.2375,401.7375 Q814.6313,401.7375 814.9313,402.0563 Q815.25,402.3563 815.25,402.7688 Q815.25,403.1813 814.8375,403.6688 Q814.2375,404.3625 813.2813,404.7562 Q811.9875,405.3 810.4313,405.3 Q808.6125,405.3 807.1687,404.55 Q805.9875,403.95 805.1625,402.675 Q804.3375,401.3812 804.3375,399.8438 L804.3375,398.4563 Q804.3375,396.8625 805.0688,395.4938 Q805.8188,394.1063 807.1313,393.375 Q808.4438,392.625 809.925,392.625 Q810.8063,392.625 811.575,392.8313 Q812.3625,393.0188 813.0188,393.45 Z " fill="#000000"/><text fill="#000000" font-family="sans-serif" font-size="16.8" lengthAdjust="spacing" textLength="43.2" x="834.3" y="405.3563">Truck</text><line style="stroke:#181818;stroke-width:0.6;" x1="723" x2="949.8" y1="417.6" y2="417.6"/><line style="stroke:#181818;stroke-width:0.6;" x1="723" x2="949.8" y1="427.2" y2="427.2"/><ellipse cx="735" cy="444.9727" fill="#84BE84" rx="3.6" ry="3.6" style="stroke:#038048;stroke-width:1.2;"/><text fill="#000000" font-family="sans-serif" font-size="16.8" lengthAdjust="spacing" textLength="183.6" x="745.8" y="450.1289">LoadingOfCargo() : void</text><ellipse cx="735" cy="467.318" fill="#84BE84" rx="3.6" ry="3.6" style="stroke:#038048;stroke-width:1.2;"/><text fill="#000000" font-family="sans-serif" font-size="16.8" lengthAdjust="spacing" textLength="198" x="745.8" y="472.4742">UnloadingOfCargo() : void</text></g><!--class AirBus--><g id="elem_AirBus"><rect codeLine="46" fill="#F1F1F1" height="102.2906" id="AirBus" rx="3" ry="3" style="stroke:#181818;stroke-width:0.6;" width="314.4" x="364.8" y="379.2"/><ellipse cx="492.3" cy="398.4" fill="#ADD1B2" rx="13.2" ry="13.2" style="stroke:#181818;stroke-width:1.2;"/><path d="M495.6188,393.45 Q495.8063,393.1875 496.0313,393.0563 Q496.2562,392.925 496.5187,392.925 Q496.9688,392.925 497.25,393.2438 Q497.5313,393.5438 497.5313,394.275 L497.5313,396.0188 Q497.5313,396.75 497.25,397.0687 Q496.9688,397.3875 496.5187,397.3875 Q496.1063,397.3875 495.8625,397.1438 Q495.6188,396.9188 495.4875,396.3 Q495.4313,395.8688 495.2062,395.6438 Q494.8125,395.1937 494.0812,394.9313 Q493.35,394.6688 492.6,394.6688 Q491.6813,394.6688 490.9125,395.0625 Q490.1625,395.4563 489.5625,396.3563 Q488.9813,397.2562 488.9813,398.4938 L488.9813,399.8063 Q488.9813,401.2875 490.05,402.2813 Q491.1188,403.2562 493.0313,403.2562 Q494.1563,403.2562 494.9437,402.9563 Q495.4125,402.7688 495.9188,402.2438 Q496.2375,401.925 496.4063,401.8313 Q496.5938,401.7375 496.8375,401.7375 Q497.2313,401.7375 497.5313,402.0563 Q497.85,402.3563 497.85,402.7688 Q497.85,403.1813 497.4375,403.6688 Q496.8375,404.3625 495.8812,404.7562 Q494.5875,405.3 493.0313,405.3 Q491.2125,405.3 489.7687,404.55 Q488.5875,403.95 487.7625,402.675 Q486.9375,401.3812 486.9375,399.8438 L486.9375,398.4563 Q486.9375,396.8625 487.6688,395.4938 Q488.4188,394.1063 489.7313,393.375 Q491.0438,392.625 492.525,392.625 Q493.4063,392.625 494.175,392.8313 Q494.9625,393.0188 495.6188,393.45 Z " fill="#000000"/><text fill="#000000" font-family="sans-serif" font-size="16.8" lengthAdjust="spacing" textLength="49.2" x="516.9" y="405.3563">AirBus</text><line style="stroke:#181818;stroke-width:0.6;" x1="366" x2="678" y1="417.6" y2="417.6"/><line style="stroke:#181818;stroke-width:0.6;" x1="366" x2="678" y1="427.2" y2="427.2"/><ellipse cx="378" cy="444.9727" fill="#84BE84" rx="3.6" ry="3.6" style="stroke:#038048;stroke-width:1.2;"/><text fill="#000000" font-family="sans-serif" font-size="16.8" lengthAdjust="spacing" textLength="234" x="388.8" y="450.1289">BoardingOfPassengers() : void</text><ellipse cx="378" cy="467.318" fill="#84BE84" rx="3.6" ry="3.6" style="stroke:#038048;stroke-width:1.2;"/><text fill="#000000" font-family="sans-serif" font-size="16.8" lengthAdjust="spacing" textLength="283.2" x="388.8" y="472.4742">DisembarkationOfPassengers() : void</text></g><!--class CargoPlane--><g id="elem_CargoPlane"><rect codeLine="53" fill="#F1F1F1" height="102.2906" id="CargoPlane" rx="3" ry="3" style="stroke:#181818;stroke-width:0.6;" width="229.2" x="993" y="379.2"/><ellipse cx="1057.5" cy="398.4" fill="#ADD1B2" rx="13.2" ry="13.2" style="stroke:#181818;stroke-width:1.2;"/><path d="M1060.8188,393.45 Q1061.0063,393.1875 1061.2313,393.0563 Q1061.4563,392.925 1061.7188,392.925 Q1062.1688,392.925 1062.45,393.2438 Q1062.7313,393.5438 1062.7313,394.275 L1062.7313,396.0188 Q1062.7313,396.75 1062.45,397.0687 Q1062.1688,397.3875 1061.7188,397.3875 Q1061.3062,397.3875 1061.0625,397.1438 Q1060.8188,396.9188 1060.6875,396.3 Q1060.6313,395.8688 1060.4063,395.6438 Q1060.0125,395.1937 1059.2813,394.9313 Q1058.55,394.6688 1057.8,394.6688 Q1056.8813,394.6688 1056.1125,395.0625 Q1055.3625,395.4563 1054.7625,396.3563 Q1054.1812,397.2562 1054.1812,398.4938 L1054.1812,399.8063 Q1054.1812,401.2875 1055.25,402.2813 Q1056.3188,403.2562 1058.2313,403.2562 Q1059.3563,403.2562 1060.1438,402.9563 Q1060.6125,402.7688 1061.1187,402.2438 Q1061.4375,401.925 1061.6063,401.8313 Q1061.7938,401.7375 1062.0375,401.7375 Q1062.4312,401.7375 1062.7313,402.0563 Q1063.05,402.3563 1063.05,402.7688 Q1063.05,403.1813 1062.6375,403.6688 Q1062.0375,404.3625 1061.0813,404.7562 Q1059.7875,405.3 1058.2313,405.3 Q1056.4125,405.3 1054.9688,404.55 Q1053.7875,403.95 1052.9625,402.675 Q1052.1375,401.3812 1052.1375,399.8438 L1052.1375,398.4563 Q1052.1375,396.8625 1052.8687,395.4938 Q1053.6187,394.1063 1054.9312,393.375 Q1056.2437,392.625 1057.725,392.625 Q1058.6063,392.625 1059.375,392.8313 Q1060.1625,393.0188 1060.8188,393.45 Z " fill="#000000"/><text fill="#000000" font-family="sans-serif" font-size="16.8" lengthAdjust="spacing" textLength="90" x="1082.1" y="405.3563">CargoPlane</text><line style="stroke:#181818;stroke-width:0.6;" x1="994.2" x2="1221" y1="417.6" y2="417.6"/><line style="stroke:#181818;stroke-width:0.6;" x1="994.2" x2="1221" y1="427.2" y2="427.2"/><ellipse cx="1006.2" cy="444.9727" fill="#84BE84" rx="3.6" ry="3.6" style="stroke:#038048;stroke-width:1.2;"/><text fill="#000000" font-family="sans-serif" font-size="16.8" lengthAdjust="spacing" textLength="183.6" x="1017" y="450.1289">LoadingOfCargo() : void</text><ellipse cx="1006.2" cy="467.318" fill="#84BE84" rx="3.6" ry="3.6" style="stroke:#038048;stroke-width:1.2;"/><text fill="#000000" font-family="sans-serif" font-size="16.8" lengthAdjust="spacing" textLength="198" x="1017" y="472.4742">UnloadingOfCargo() : void</text></g><!--reverse link Transport to MotorTransport--><g id="link_Transport_MotorTransport"><path codeLine="10" d="M684.696,155.088 C673.872,176.256 662.748,198.024 653.64,215.82 " fill="none" id="Transport-backto-MotorTransport" style="stroke:#181818;stroke-width:1.2;"/><polygon fill="none" points="677.364,150.984,695.772,133.44,692.316,158.64,677.364,150.984" style="stroke:#181818;stroke-width:1.2;"/></g><!--reverse link Transport to AirTransport--><g id="link_Transport_AirTransport"><path codeLine="15" d="M769.704,155.088 C780.528,176.256 791.652,198.024 800.76,215.82 " fill="none" id="Transport-backto-AirTransport" style="stroke:#181818;stroke-width:1.2;"/><polygon fill="none" points="762.084,158.64,758.628,133.44,777.036,150.984,762.084,158.64" style="stroke:#181818;stroke-width:1.2;"/></g><!--reverse link MotorTransport to Bus--><g id="link_MotorTransport_Bus"><path codeLine="30" d="M531.864,294.708 C464.448,319.428 375.216,352.14 301.716,379.092 " fill="none" id="MotorTransport-backto-Bus" style="stroke:#181818;stroke-width:1.2;"/><polygon fill="none" points="529.32,286.692,554.736,286.32,535.104,302.46,529.32,286.692" style="stroke:#181818;stroke-width:1.2;"/></g><!--reverse link IPassengerTransportation to Bus--><g id="link_IPassengerTransportation_Bus"><path codeLine="31" d="M240.276,327.3 C227.52,344.676 214.104,362.952 202.212,379.14 " fill="none" id="IPassengerTransportation-backto-Bus" style="stroke:#181818;stroke-width:1.2;stroke-dasharray:7.0,7.0;"/><polygon fill="none" points="233.844,321.864,254.82,307.5,247.38,331.812,233.844,321.864" style="stroke:#181818;stroke-width:1.2;"/></g><!--reverse link MotorTransport to Truck--><g id="link_MotorTransport_Truck"><path codeLine="37" d="M698.652,312.444 C723.936,333.84 752.688,358.164 777.36,379.044 " fill="none" id="MotorTransport-backto-Truck" style="stroke:#181818;stroke-width:1.2;"/><polygon fill="none" points="693.024,318.684,680.124,296.772,703.872,305.856,693.024,318.684" style="stroke:#181818;stroke-width:1.2;"/></g><!--reverse link ICargoTransportation to Truck--><g id="link_ICargoTransportation_Truck"><path codeLine="38" d="M986.076,321.444 C959.604,340.464 930.996,361.02 905.964,379.008 " fill="none" id="ICargoTransportation-backto-Truck" style="stroke:#181818;stroke-width:1.2;stroke-dasharray:7.0,7.0;"/><polygon fill="none" points="981.42,314.448,1005.804,307.26,991.224,328.092,981.42,314.448" style="stroke:#181818;stroke-width:1.2;"/></g><!--reverse link AirTransport to AirBus--><g id="link_AirTransport_AirBus"><path codeLine="44" d="M733.152,307.728 C694.008,330.216 647.988,356.652 608.916,379.08 " fill="none" id="AirTransport-backto-AirBus" style="stroke:#181818;stroke-width:1.2;"/><polygon fill="none" points="729.12,300.36,754.116,295.692,737.484,314.928,729.12,300.36" style="stroke:#181818;stroke-width:1.2;"/></g><!--reverse link IPassengerTransportation to AirBus--><g id="link_IPassengerTransportation_AirBus"><path codeLine="45" d="M377.964,321.732 C403.404,340.668 430.848,361.104 454.884,379.008 " fill="none" id="IPassengerTransportation-backto-AirBus" style="stroke:#181818;stroke-width:1.2;stroke-dasharray:7.0,7.0;"/><polygon fill="none" points="372.78,328.332,358.548,307.26,382.812,314.868,372.78,328.332" style="stroke:#181818;stroke-width:1.2;"/></g><!--reverse link AirTransport to CargoPlane--><g id="link_AirTransport_CargoPlane"><path codeLine="51" d="M907.224,309.108 C944.208,331.236 987.228,356.976 1023.9,378.924 " fill="none" id="AirTransport-backto-CargoPlane" style="stroke:#181818;stroke-width:1.2;"/><polygon fill="none" points="902.52,316.08,886.236,296.556,911.148,301.668,902.52,316.08" style="stroke:#181818;stroke-width:1.2;"/></g><!--reverse link ICargoTransportation to CargoPlane--><g id="link_ICargoTransportation_CargoPlane"><path codeLine="52" d="M1089.144,331.284 C1092.204,347.436 1095.36,364.176 1098.18,379.14 " fill="none" id="ICargoTransportation-backto-CargoPlane" style="stroke:#181818;stroke-width:1.2;stroke-dasharray:7.0,7.0;"/><polygon fill="none" points="1080.852,332.64,1084.656,307.5,1097.364,329.52,1080.852,332.64" style="stroke:#181818;stroke-width:1.2;"/></g><!--SRC=[hLFBRi8m4BpxAtmhLPNaZhWKUgdK2Wxq0pQEIIqIErexI0ZuzwwSvaNpED2RjJEU7S-kdxwTA-moYeeCj2lpB1GcZqG6rWQ9WXGXPmnYwn24uxxEzmZQ5WOTlx0NNb19wbJY1WeGoftvaYlj2160U5OwxG29AUDCCW8ljUYDVvgJN3mJUZ8gOJV6sWQhQn0GxWmsjNitVTHRcXDyLUDoNMnOZ1udyG12ylSDO6eQEZXbjB_JUTo7WOGos1uyjnNgaRvqDaBhzzlLMK_tN1l0IgsvO4SwloahynZmw8M6Bv27kv1zYklIib57gsiOUaQLAfsyoJbd3zZPOocER70atao5rnjCPszeV3oJC-bjIRrJyu7yaffD- -TO_hhopdVqjUL4CXrIvQmjF93H3m00]--></g></svg>